<svg xmlns="http://www.w3.org/2000/svg" viewBox="0 0 64 64">
  <defs>
    <linearGradient id="bg" x1="0%" y1="0%" x2="100%" y2="100%">
      <stop offset="0%" stop-color="#40c99f"/>
      <stop offset="100%" stop-color="#ff7b4d"/>
    </linearGradient>
  </defs>
  <rect width="64" height="64" rx="18" fill="url(#bg)"/>
  <path d="M21 24c0-4.4 3.6-8 8-8h7c4.4 0 8 3.6 8 8v2h-6v-1c0-1.7-1.3-3-3-3h-5c-1.7 0-3 1.3-3 3v14c0 1.7 1.3 3 3 3h5c1.7 0 3-1.3 3-3v-1h6v2c0 4.4-3.6 8-8 8h-7c-4.4 0-8-3.6-8-8V24Z" fill="#fff"/>
  <circle cx="46" cy="34" r="6" fill="#fff" fill-opacity="0.92"/>
</svg>
